
<svg width="2048" height="2048" xmlns="http://www.w3.org/2000/svg">
  <defs>
    <radialGradient id="bgGradient" cx="50%" cy="50%" r="50%">
      <stop offset="0%" style="stop-color:#133C55;stop-opacity:1" />
      <stop offset="50%" style="stop-color:#0D1B2A;stop-opacity:1" />
      <stop offset="100%" style="stop-color:#0A1830;stop-opacity:1" />
    </radialGradient>
  </defs>
  
  <!-- Background -->
  <rect width="2048" height="2048" fill="url(#bgGradient)"/>
  
  <!-- Title -->
  <text x="1024" y="150" text-anchor="middle" fill="#EAE7DC" font-family="serif" font-size="48" font-weight="bold">SE2-09 — VACHE SENTINEL</text>
  
  <!-- Place -->
  <text x="1024" y="220" text-anchor="middle" fill="#D9B45B" font-family="serif" font-size="32">Vache Island (Île aux Vaches Marines)</text>
  
  <!-- Hidden Letter (very faint) -->
  <text x="1024" y="1200" text-anchor="middle" fill="#133C55" font-family="serif" font-size="400" font-weight="bold" opacity="0.3">R</text>
  
  <!-- Compass Ring -->
  <circle cx="1024" cy="1024" r="300" fill="none" stroke="#D9B45B" stroke-width="8"/>
  
  <!-- Star overlay if needed -->
  <polygon points="1174,385 1179,395 1189,395 1182,402 1184,412 1174,408 1164,412 1166,402 1159,395 1169,395" fill="#EAE7DC"/>
<polygon points="1117.52347027881,463.183148246803 1122.52347027881,473.183148246803 1132.52347027881,473.183148246803 1125.52347027881,480.183148246803 1127.52347027881,490.183148246803 1117.52347027881,486.183148246803 1107.52347027881,490.183148246803 1109.52347027881,480.183148246803 1102.52347027881,473.183148246803 1112.52347027881,473.183148246803" fill="#EAE7DC"/>
<polygon points="990.6218599065528,482.49279121818233 995.6218599065528,492.49279121818233 1005.6218599065528,492.49279121818233 998.6218599065528,499.49279121818233 1000.6218599065528,509.49279121818233 990.6218599065528,505.49279121818233 980.6218599065528,509.49279121818233 982.6218599065528,499.49279121818233 975.6218599065528,492.49279121818233 985.6218599065528,492.49279121818233" fill="#EAE7DC"/>
<polygon points="888.8546698146372,428.3883739117558 893.8546698146372,438.3883739117558 903.8546698146372,438.3883739117558 896.8546698146372,445.3883739117558 898.8546698146372,455.3883739117558 888.8546698146372,451.3883739117558 878.8546698146372,455.3883739117558 880.8546698146372,445.3883739117558 873.8546698146372,438.3883739117558 883.8546698146372,438.3883739117558" fill="#EAE7DC"/>
<polygon points="888.8546698146372,341.6116260882442 893.8546698146372,351.6116260882442 903.8546698146372,351.6116260882442 896.8546698146372,358.6116260882442 898.8546698146372,368.6116260882442 888.8546698146372,364.6116260882442 878.8546698146372,368.6116260882442 880.8546698146372,358.6116260882442 873.8546698146372,351.6116260882442 883.8546698146372,351.6116260882442" fill="#EAE7DC"/>
<polygon points="990.6218599065528,287.50720878181767 995.6218599065528,297.50720878181767 1005.6218599065528,297.50720878181767 998.6218599065528,304.50720878181767 1000.6218599065528,314.50720878181767 990.6218599065528,310.50720878181767 980.6218599065528,314.50720878181767 982.6218599065528,304.50720878181767 975.6218599065528,297.50720878181767 985.6218599065528,297.50720878181767" fill="#EAE7DC"/>
<polygon points="1117.52347027881,306.816851753197 1122.52347027881,316.816851753197 1132.52347027881,316.816851753197 1125.52347027881,323.816851753197 1127.52347027881,333.816851753197 1117.52347027881,329.816851753197 1107.52347027881,333.816851753197 1109.52347027881,323.816851753197 1102.52347027881,316.816851753197 1112.52347027881,316.816851753197" fill="#EAE7DC"/>
  
  <!-- Clue text -->
  <text x="1024" y="1700" text-anchor="middle" fill="#EAE7DC" font-family="serif" font-size="24">A cow by name, a sentinel by duty.</text>
  <text x="1024" y="1750" text-anchor="middle" fill="#EAE7DC" font-family="serif" font-size="24">Count the seven lights that never drink.</text>
  
  <!-- Visual description -->
  <text x="100" y="1900" fill="#D9B45B" font-family="serif" font-size="20">Bare granite islet; sentinel mood; seven faint stars above; skull watermark in f...</text>
</svg>